<?xml version="1.0" standalone="no"?>
<!DOCTYPE svg PUBLIC "-//W3C//DTD SVG 20010904//EN"
 "http://www.w3.org/TR/2001/REC-SVG-20010904/DTD/svg10.dtd">
<svg version="1.0" xmlns="http://www.w3.org/2000/svg"
 width="663.000000pt" height="663.000000pt" viewBox="0 0 663.000000 663.000000"
 preserveAspectRatio="xMidYMid meet">
<metadata>
Created by potrace 1.11, written by Peter Selinger 2001-2013
</metadata>
<g transform="translate(0.000000,663.000000) scale(0.100000,-0.100000)"
fill="#000000" stroke="none">
<path d="M1720 6153 c0 -4 -353 -8 -784 -9 l-783 -1 -37 -22 c-66 -41 -73 -64
-83 -271 -6 -147 -7 -3341 0 -3480 10 -203 29 -223 232 -236 55 -3 537 -8
1070 -10 534 -2 981 -5 995 -6 28 -3 28 -5 4 -128 -24 -123 -27 -140 -40 -213
-2 -10 -5 -26 -8 -35 -3 -9 -7 -30 -10 -46 -3 -16 -11 -55 -17 -85 -17 -82
-17 -85 -18 -99 -1 -8 -115 -129 -255 -270 -385 -389 -463 -474 -481 -516 -31
-73 11 -188 81 -221 49 -23 243 -26 1754 -27 1661 -1 1648 -1 1701 25 57 28
99 88 99 142 0 102 8 92 -511 614 l-232 233 -34 162 c-18 88 -35 178 -38 200
-3 21 -7 41 -9 45 -2 3 -7 26 -11 50 -3 24 -10 53 -14 65 -4 11 -7 39 -6 61 0
35 3 40 25 43 14 1 462 4 995 6 534 3 1012 7 1064 10 152 9 178 21 213 95 l27
56 -4 1810 c-2 996 -5 1838 -8 1872 -4 65 -18 93 -69 147 l-30 31 -952 1
c-524 0 -957 4 -963 7 -6 4 -13 4 -16 1 -4 -5 -276 -7 -387 -3 -14 0 -107 -1
-180 -2 -19 0 -41 0 -47 0 -52 1 -104 1 -136 -2 -21 -1 -41 1 -43 5 -3 4 -15
3 -27 -1 -12 -5 -34 -5 -49 0 -16 4 -28 5 -28 1 0 -6 -193 -7 -210 -1 -3 1 -9
0 -15 -1 -5 -1 -48 -1 -95 0 -82 1 -100 1 -183 -3 -20 -1 -37 0 -37 3 0 3 -24
4 -52 3 -74 -3 -101 -3 -118 -3 -8 0 -61 0 -117 -1 -55 -1 -106 2 -112 5 -6 4
-11 2 -11 -4 0 -6 -4 -8 -10 -5 -5 3 -44 6 -87 5 -43 0 -94 0 -113 1 -19 1
-42 1 -50 0 -52 -4 -121 -2 -130 4 -5 3 -10 3 -10 -2 0 -4 -26 -7 -57 -6 -71
2 -120 3 -195 2 -32 0 -62 2 -68 6 -5 3 -10 3 -10 -2 0 -10 -243 -9 -259 1 -6
4 -11 4 -11 -1z m4511 -380 c1 -5 2 -743 2 -1641 2 -1444 0 -1635 -13 -1641
-8 -4 -1320 -6 -2914 -6 -2856 1 -2899 2 -2903 21 -2 10 -3 51 -2 89 0 39 0
77 0 85 0 8 0 51 0 95 0 44 0 94 0 110 -5 119 -5 165 0 165 4 0 3 17 0 38 -4
20 -4 52 0 71 4 19 5 40 2 46 -6 17 -9 165 -3 165 3 0 4 19 3 42 -2 24 -2 81
-2 128 0 47 0 92 0 100 -2 72 0 164 5 171 3 5 2 9 -3 9 -4 0 -7 26 -6 57 4 91
4 143 1 221 -2 39 -1 72 2 72 3 0 5 29 5 65 0 36 -2 65 -5 65 -3 0 -4 19 -2
42 1 24 3 50 3 58 0 37 0 187 0 200 0 8 0 51 0 95 0 44 0 94 0 110 -5 119 -5
165 0 165 4 0 3 17 0 38 -4 20 -4 52 0 71 4 19 5 40 2 46 -6 17 -9 165 -3 165
3 0 4 19 3 42 -2 24 -2 81 -2 128 0 47 0 92 0 100 -1 14 0 134 1 155 0 6 -1
15 -2 20 -1 6 -2 18 -1 28 1 16 147 17 2916 17 1603 0 2915 -3 2916 -7z
m-2302 -3808 c18 -88 34 -171 36 -185 3 -14 12 -60 20 -103 8 -44 13 -82 10
-86 -5 -9 -1350 -9 -1359 -1 -3 3 6 61 19 130 14 68 27 142 31 164 3 22 7 43
9 46 2 3 6 23 9 45 10 67 28 140 37 145 5 3 267 6 583 6 l574 -1 31 -160z
m413 -937 c98 -98 174 -178 170 -179 -9 -1 -2374 -1 -2387 0 -5 1 70 81 168
179 l178 178 847 0 848 -1 176 -177z"/>
<path d="M2980 4872 c-7 -3 -10 -218 -10 -621 l0 -617 120 0 120 0 0 136 0
136 54 47 c30 26 58 47 63 47 4 0 21 -21 38 -48 16 -26 32 -49 35 -52 3 -3 43
-62 88 -132 46 -70 89 -128 95 -131 18 -6 226 -1 233 6 6 6 -31 64 -207 317
-63 91 -118 170 -122 176 -4 7 62 90 153 195 88 101 160 187 160 190 0 3 -53
6 -117 6 l-118 1 -55 -57 c-30 -31 -89 -95 -130 -141 -41 -46 -95 -106 -120
-133 l-45 -48 -3 357 c-2 197 -5 361 -8 364 -6 5 -207 7 -224 2z"/>
<path d="M4734 4563 c-16 -17 -380 -742 -496 -990 -32 -68 -55 -129 -52 -137
10 -25 44 -30 60 -9 13 17 448 882 449 893 0 4 24 55 91 194 26 55 -11 89 -52
49z"/>
<path d="M2220 4529 c-48 -7 -82 -20 -173 -64 -63 -31 -62 -27 -28 -110 31
-78 34 -80 71 -61 18 9 39 16 46 16 7 0 14 4 16 8 7 19 125 49 188 48 116 -2
179 -51 183 -141 l2 -50 -40 3 c-214 13 -298 6 -382 -35 -109 -51 -164 -140
-158 -254 5 -102 39 -162 119 -214 130 -82 316 -67 441 36 26 21 50 39 54 39
4 0 12 -15 19 -33 14 -40 46 -71 87 -84 35 -12 146 -7 154 6 5 8 6 63 2 142 0
14 -10 36 -21 49 -11 13 -20 32 -21 44 0 12 -2 28 -3 36 -2 8 -6 85 -10 170
-3 85 -9 173 -12 195 -18 117 -132 232 -249 251 -57 9 -233 11 -285 3z m255
-497 c50 -17 50 -17 51 -62 2 -91 -85 -165 -203 -174 -55 -4 -75 4 -120 47
-128 120 70 258 272 189z"/>
<path d="M1454 4411 c-5 -4 -27 -13 -49 -20 -22 -7 -60 -22 -85 -33 -25 -11
-49 -21 -55 -23 -12 -2 -33 -11 -104 -42 -29 -12 -60 -23 -67 -23 -8 0 -14 -4
-14 -10 0 -5 -3 -9 -7 -8 -5 2 -33 -8 -63 -22 -30 -13 -57 -25 -60 -25 -14 -4
-53 -22 -137 -62 -65 -30 -93 -49 -93 -61 0 -36 12 -58 38 -69 15 -7 50 -22
77 -33 28 -12 64 -28 80 -35 17 -7 55 -23 85 -35 30 -12 69 -28 85 -35 48 -22
205 -86 275 -112 100 -38 128 -43 145 -26 33 32 14 43 -370 208 -16 7 -59 25
-95 40 -36 15 -94 41 -130 57 l-64 31 29 13 c94 42 135 59 280 117 234 95 329
138 341 155 19 26 -19 72 -42 53z"/>
<path d="M5172 4396 c-20 -45 -18 -46 389 -215 108 -44 201 -81 207 -81 7 0
12 -4 12 -10 0 -5 6 -10 14 -10 7 0 18 -6 24 -13 9 -10 -37 -33 -221 -107
-128 -51 -250 -101 -272 -111 -22 -10 -60 -25 -84 -34 -55 -19 -73 -41 -58
-72 6 -13 14 -23 18 -23 20 0 310 113 427 166 29 13 55 24 58 24 3 0 24 8 47
19 23 10 78 33 121 51 89 37 119 61 109 87 -7 22 -33 53 -44 53 -4 0 -40 15
-81 34 -79 37 -152 67 -447 187 -107 44 -197 79 -201 79 -4 0 -12 -11 -18 -24z"/>
</g>
</svg>
