<?xml version="1.0" standalone="no"?>
<!DOCTYPE svg PUBLIC "-//W3C//DTD SVG 20010904//EN"
 "http://www.w3.org/TR/2001/REC-SVG-20010904/DTD/svg10.dtd">
<svg version="1.0" xmlns="http://www.w3.org/2000/svg"
 width="497.000000pt" height="429.000000pt" viewBox="0 0 497.000000 429.000000"
 preserveAspectRatio="xMidYMid meet">
    <linearGradient id="bg-gradient" x2="1" y2="1">
        <stop offset="0%" stop-color="#2B86C5" />
        <stop offset="50%" stop-color="#784BA0" />
        <stop offset="100%" stop-color="#FF3CAC" />
    </linearGradient>
    <linearGradient id="fg-gradient-1" x2="1" y2="1">
        <stop offset="0%" stop-color="#2B86C5" />
        <stop offset="50%" stop-color="#784BA0" />
        <stop offset="100%" stop-color="#FF3CAC" />
    </linearGradient>
<g transform="translate(0.000000,429.000000) scale(0.100000,-0.100000)" stroke="none">
<path fill="url(#bg-gradient) #447799" d="M116 4260 c-15 -5 -37 -17 -48 -27 -50 -44 -48 12 -48 -1478 0 -1364
0 -1397 20 -1434 38 -75 -11 -71 909 -71 650 0 821 -3 821 -12 0 -7 -21 -114
-46 -238 l-46 -225 -268 -270 c-148 -149 -273 -283 -279 -298 -25 -65 -2 -136
56 -174 26 -17 92 -18 1281 -21 836 -1 1266 1 1292 8 22 6 51 25 69 45 25 29
31 44 31 83 0 27 -7 58 -16 72 -9 14 -135 144 -280 290 l-264 265 -45 224
c-25 124 -45 231 -45 238 0 11 150 13 821 13 915 0 866 -4 907 69 l22 39 0
1398 c0 1312 -1 1401 -18 1433 -9 19 -30 44 -45 55 l-28 21 -2362 2 c-1299 1
-2375 -3 -2391 -7z m4564 -1505 l0 -1235 -2190 0 -2190 0 0 1235 0 1235 2190
0 2190 0 0 -1235z m-1714 -1707 l39 -203 -257 -3 c-142 -1 -374 -1 -516 0
l-258 3 39 203 39 202 438 0 437 0 39 -202z m294 -623 l135 -135 -905 0 -905
0 135 135 135 135 635 0 635 0 135 -135z"/>
<path fill="#784BA0" d="M2230 2845 l0 -465 90 0 90 0 0 103 1 102 44 38 44 38 93 -140 93
-140 93 -1 c50 0 92 3 92 8 0 4 -58 90 -129 192 l-129 185 32 36 c17 20 73 84
124 143 l93 106 -95 0 -95 0 -128 -142 -128 -142 -3 272 -2 272 -90 0 -90 0 0
-465z"/>
<path fill="#784BA0" d="M3552 3078 c-22 -28 -412 -819 -412 -837 0 -20 25 -35 41 -25 18 11
430 846 425 860 -7 17 -40 18 -54 2z"/>
<path fill="#784BA0" d="M1646 3049 c-38 -9 -133 -53 -149 -68 -6 -6 30 -97 47 -118 1 -1 32
14 70 33 113 56 234 45 271 -26 8 -16 15 -43 15 -60 0 -30 0 -30 -42 -23 -85
15 -210 8 -263 -16 -96 -42 -137 -100 -137 -193 0 -82 37 -141 111 -180 98
-51 240 -30 323 49 15 15 29 25 31 22 1 -2 10 -20 19 -41 20 -44 68 -63 134
-53 l44 6 0 69 c0 57 -3 71 -19 79 -16 9 -19 27 -23 173 -5 181 -15 218 -71
276 -57 60 -99 75 -217 78 -58 2 -122 -1 -144 -7z m222 -371 c29 -9 32 -13 32
-47 0 -71 -77 -130 -169 -131 -36 0 -49 6 -77 34 -37 37 -43 69 -18 104 38 55
131 71 232 40z"/>
<path fill="#784BA0" d="M818 2853 c-267 -112 -278 -117 -278 -143 0 -15 6 -32 13 -37 6 -6
135 -61 286 -122 251 -104 275 -111 290 -97 11 12 13 21 6 32 -6 9 -122 62
-258 117 -136 55 -244 104 -240 108 5 4 112 49 238 99 127 51 237 99 245 107
11 10 12 18 4 30 -6 9 -15 18 -20 19 -5 2 -134 -49 -286 -113z"/>
<path fill="#784BA0" d="M3881 2952 c-5 -10 -6 -24 -2 -31 5 -7 122 -59 262 -116 238 -97 252
-104 225 -114 -15 -6 -123 -50 -240 -97 -116 -47 -216 -88 -223 -91 -18 -7
-23 -30 -9 -49 12 -16 34 -8 287 96 151 62 280 118 287 123 7 6 12 22 10 36
-3 24 -25 35 -287 143 -157 65 -288 118 -293 118 -4 0 -12 -8 -17 -18z"/>
</g>
</svg>
